<svg width="48" height="48" viewBox="0 0 48 48" fill="none" xmlns="http://www.w3.org/2000/svg">
<g clip-path="url(#clip0_62_2)">
<path d="M35.9543 33.6852L14.2463 11.9772L11.9129 14.3106L33.6209 36.0186L35.9543 33.6852Z" fill="#F2F2F2"/>
<path d="M1.2 25.1C-0.4 26.7 -0.4 29.2 1.2 30.8L17.3 46.9C18.9 48.5 21.4 48.5 23 46.9L33.7 36L12 14.3L1.2 25.1Z" fill="#CDD6E0"/>
<path d="M46.8 17.2L30.8 1.2C29.2 -0.4 26.7 -0.4 25.1 1.2L14.3 12L36 33.7L46.8 22.9C48.4 21.3 48.4 18.8 46.8 17.2Z" fill="#FFC000"/>
<path d="M46.7999 17.2L30.7999 1.2C29.1999 -0.4 26.7 -0.4 25.1 1.2L23.7 2.6C25.3 1 27.8 1 29.4 2.6L45.5 18.7C47.1 20.3 47.1 22.8 45.5 24.4L46.9 23C48.4 21.3 48.4 18.8 46.7999 17.2Z" fill="#EFB400"/>
<path d="M46.5 48H8.80005C8.00005 48 7.30005 47.3 7.30005 46.5C7.30005 45.6 8.00005 45 8.80005 45H46.5C47.3 45 48 45.7 48 46.5C48 47.3 47.3 48 46.5 48Z" fill="#ACB3BA"/>
<path d="M9 40.5C8.7 40.5 8.5 40.7 8.5 41V44C8.5 44.3 8.7 44.5 9 44.5C9.3 44.5 9.5 44.3 9.5 44V41C9.5 40.7 9.3 40.5 9 40.5Z" fill="#FFD15C"/>
<path d="M6 46.5H3C2.7 46.5 2.5 46.7 2.5 47C2.5 47.3 2.7 47.5 3 47.5H6C6.3 47.5 6.5 47.3 6.5 47C6.5 46.8 6.2 46.5 6 46.5Z" fill="#FFD15C"/>
<path d="M4.79995 42.1C4.59995 41.9 4.29995 41.9 4.09995 42.1C3.89995 42.3 3.89995 42.6 4.09995 42.8L6.19995 45C6.29995 45.1 6.39995 45.1 6.59995 45.1C6.69995 45.1 6.89995 45.1 6.99995 45C7.19995 44.8 7.19995 44.5 6.99995 44.3L4.79995 42.1Z" fill="#FFD15C"/>
</g>
<defs>
<clipPath id="clip0_62_2">
<rect width="48" height="48" fill="white"/>
</clipPath>
</defs>
</svg>
