<svg width="32" height="100" viewBox="0 0 32 100" fill="none" xmlns="http://www.w3.org/2000/svg">
<path d="M3.05025 66.8846L28.1047 66.8846L28.1047 30.9369L3.05026 30.9368L3.05025 66.8846Z" fill="#40596B"/>
<path d="M8.01086e-05 30.9368L31.1548 30.9368L31.1548 -5.72205e-06L8.28132e-05 -8.44568e-06L8.01086e-05 30.9368Z" fill="#54C0EB"/>
<path d="M8.01086e-05 22.0044L31.1548 22.0044L31.1548 18.0828L8.04515e-05 18.0828L8.01086e-05 22.0044Z" fill="#F1543F"/>
<path d="M15.0326 100L16.122 100C17.647 97.1678 23.0937 85.8388 26.7974 83.4423L26.7974 66.8845L4.1394 66.8845L4.1394 83.4423C7.84311 85.8388 13.2897 97.1678 15.0326 100Z" fill="#FFD15C"/>
<path d="M15.4686 76.9063C13.7257 76.9063 12.4185 78.2135 12.4185 79.9564C12.4185 81.4815 13.5078 82.5708 14.815 82.7887L14.815 99.7821C14.815 99.7821 14.815 100 15.0329 100L16.1222 100C16.1222 100 16.3401 100 16.3401 99.7821L16.3401 82.7887C17.6472 82.5708 18.7366 81.2636 18.7366 79.9564C18.5187 78.2135 17.2115 76.9063 15.4686 76.9063Z" fill="#334A5E"/>
</svg>
