<svg width="54" height="54" viewBox="0 0 54 54" fill="none" xmlns="http://www.w3.org/2000/svg">
<g clip-path="url(#clip0_62_98)">
<path d="M27 54C41.9117 54 54 41.9117 54 27C54 12.0883 41.9117 0 27 0C12.0883 0 0 12.0883 0 27C0 41.9117 12.0883 54 27 54Z" fill="#F2F2F2"/>
<path d="M27.0001 29.5875C28.4291 29.5875 29.5876 28.429 29.5876 27C29.5876 25.571 28.4291 24.4125 27.0001 24.4125C25.5711 24.4125 24.4126 25.571 24.4126 27C24.4126 28.429 25.5711 29.5875 27.0001 29.5875Z" fill="#40596B"/>
<path d="M27 28.2375C27.6834 28.2375 28.2374 27.6835 28.2374 27C28.2374 26.3166 27.6834 25.7625 27 25.7625C26.3165 25.7625 25.7625 26.3166 25.7625 27C25.7625 27.6835 26.3165 28.2375 27 28.2375Z" fill="white"/>
<path d="M49.5 27C49.5 30.0375 48.825 32.9625 47.8125 35.55L36.5625 30.9375C37.125 29.7 37.35 28.35 37.35 27H49.5Z" fill="#40596B"/>
<path d="M23.0625 36.5625L18.45 47.7C15.6375 46.575 13.1625 44.8875 11.1375 42.8625L19.6875 34.3125C20.5875 35.325 21.7125 36.1125 23.0625 36.5625Z" fill="#CDD6E0"/>
<path d="M19.6875 34.3125L11.1375 42.8625C9.11255 40.8375 7.42505 38.3625 6.30005 35.55L17.5501 30.9375C17.8876 32.2875 18.675 33.4125 19.6875 34.3125Z" fill="#ACB3BA"/>
<path d="M17.4375 30.9375L6.1875 35.55C5.0625 32.9625 4.5 30.0375 4.5 27H16.65C16.65 28.4625 16.875 29.7 17.4375 30.9375Z" fill="#84DBFF"/>
<path d="M17.4375 23.0625C16.875 24.3 16.65 25.65 16.65 27H4.5C4.5 23.9625 5.0625 21.0375 6.1875 18.45L17.4375 23.0625Z" fill="#54C0EB"/>
<path d="M47.8125 35.6625C46.6875 38.3625 45 40.8375 42.975 42.975L34.425 34.425C35.4375 33.4125 36.1125 32.2875 36.675 31.05L47.8125 35.6625Z" fill="#334A5E"/>
<path d="M42.8625 42.8625C40.8375 44.8875 38.3625 46.575 35.55 47.7L30.9375 36.5625C32.175 36 33.3 35.325 34.3125 34.3125L42.8625 42.8625Z" fill="#284154"/>
<path d="M49.5 27H37.35C37.35 25.5375 37.0125 24.3 36.5625 23.0625L47.8125 18.45C48.9375 21.0375 49.5 23.9625 49.5 27Z" fill="#E23C2B"/>
<path d="M42.8625 11.1375L34.3125 19.6875C33.4125 18.7875 32.175 18 30.9375 17.4375L35.55 6.29999C38.3625 7.31249 40.8375 8.99999 42.8625 11.1375Z" fill="#FF7058"/>
<path d="M47.8125 18.45L36.5625 23.0625C36 21.825 35.325 20.7 34.3125 19.6875L42.8625 11.1375C45 13.1625 46.6875 15.6375 47.8125 18.45Z" fill="#F1543F"/>
<path d="M35.6625 6.1875L31.05 17.325C29.8125 16.7625 28.4625 16.5375 27.1125 16.5375V4.5C30.0375 4.5 32.9625 5.175 35.6625 6.1875Z" fill="#EFA53A"/>
<path d="M23.0625 17.4375C21.825 18 20.5875 18.7875 19.6875 19.6875L11.1375 11.1375C13.1625 9.11249 15.6375 7.42499 18.45 6.29999L23.0625 17.4375Z" fill="#FFD15C"/>
<path d="M27 4.5V16.65C25.5375 16.65 24.1875 16.9875 23.0625 17.4375L18.45 6.3C21.0375 5.175 23.9625 4.5 27 4.5Z" fill="#F8B64C"/>
<path d="M19.6875 19.6875C18.675 20.7 18 21.825 17.4375 23.0625L6.1875 18.45C7.3125 15.75 9 13.275 11.025 11.1375L19.6875 19.6875Z" fill="#20ADCE"/>
</g>
<defs>
<clipPath id="clip0_62_98">
<rect width="54" height="54" fill="white"/>
</clipPath>
</defs>
</svg>
