<svg width="30" height="100" viewBox="0 0 30 100" fill="none" xmlns="http://www.w3.org/2000/svg">
<path d="M24.7793 64.5618C22.3049 64.5927 20.4648 66.3939 19.7891 68.3713L14.9853 99.9299L21.5163 86.0819L29.7041 67.9766C29.7041 66.1555 27.1531 64.5322 24.7793 64.5618Z" fill="#FFD15C"/>
<path d="M10.1198 68.3041C9.42704 66.2259 7.32358 64.5945 4.85739 64.6316C2.69198 64.6642 0.482337 65.0292 0.225804 67.6813C1.41824 70.1754 9.69949 88.4211 9.69949 88.4211L14.9626 100L10.1198 68.3041Z" fill="#E29B34"/>
<path d="M8.22584 66.1053C8.43637 66.3158 8.64689 66.5264 8.85742 66.7369C8.64689 66.5264 8.43637 66.3158 8.22584 66.1053Z" fill="#40596B"/>
<path d="M10.9627 66.7369C11.1732 66.5264 11.3837 66.3158 11.5942 66.1053C11.3837 66.3158 11.1732 66.5264 10.9627 66.7369Z" fill="#40596B"/>
<path d="M11.8047 65.8947C12.4363 65.4737 13.0679 65.0526 13.6995 64.8421C13.0679 65.0526 12.4363 65.4737 11.8047 65.8947Z" fill="#40596B"/>
<path d="M0.225777 10.3158L29.6995 10.3158L29.6995 -2.86102e-06L0.225778 -5.43769e-06L0.225777 10.3158Z" fill="#40596B"/>
<path d="M15.1029 64.2807C12.991 64.2807 10.3076 65.9649 10.1018 68.3041L14.9666 99.9485L20.0198 68.3228C19.1777 66.2176 17.2082 64.2807 15.1029 64.2807Z" fill="#F8B64C"/>
<path d="M14.9625 64.6316C17.0678 64.6316 18.9625 66.1053 20.0151 68.4211L20.0151 3.11816e-05L10.1204 3.03166e-05L10.1204 68.4211C10.1204 66.2607 13.1476 64.6316 14.9625 64.6316Z" fill="#54C0EB"/>
<path d="M20.0153 68.4211C20.6557 66.4996 22.4564 64.6623 24.8574 64.6316C27.1607 64.6021 28.8027 66.2064 29.6995 68L29.6995 3.11816e-05L19.8047 3.03166e-05L20.0153 68.4211Z" fill="#84DBFF"/>
<path d="M0.225867 16.4211L0.225867 67.6755C0.225849 66.0671 2.83448 64.6158 5.06797 64.6316C7.53438 64.6491 9.4221 66.3256 10.1206 68.4211L10.1206 3.11816e-05L0.225869 3.03166e-05L0.225867 16.4211Z" fill="#1BAACC"/>
<path d="M21.6995 85.6842L14.9626 100L8.4363 85.6842L21.6995 85.6842Z" fill="#334A5E"/>
</svg>
