<svg width="100" height="100" viewBox="0 0 100 100" fill="none" xmlns="http://www.w3.org/2000/svg">
<path d="M62.3962 66.4062L86.0782 25.3234C88.1094 28.2643 89.7689 31.4452 91.0188 34.7937C92.831 39.6861 93.7559 44.8625 93.7501 50.0797C93.7501 55.707 92.6969 60.9375 90.6157 66.4062H62.3962ZM46.4391 6.40234C47.6235 6.30194 48.8115 6.25111 50.0001 6.25C52.2368 6.25 54.4829 6.42031 56.6782 6.75625C67.4899 8.41172 77.2048 14.0297 84.093 22.5938L69.9399 47.1078L46.4391 6.40234ZM43.8118 68.75H89.2532C87.9672 72.6562 86.4102 74.1281 84.6172 76.4469C77.8852 85.1508 68.2844 90.8008 57.5344 92.6656L43.8118 68.75ZM50.0001 93.7508C48.1704 93.7508 46.2571 93.6227 44.3149 93.3719C33.4641 91.9617 23.6282 86.5805 16.5571 78.1922L30.9798 53.2102L54.2649 93.5406C52.8476 93.6802 51.4243 93.7503 50.0001 93.7508ZM9.8071 32.8125C11.3399 29.6875 13.3508 25.8562 15.793 22.7953C22.6548 14.1977 32.3508 8.57656 43.143 6.87969L58.0985 32.8125H9.8071ZM14.529 75.6898C12.6349 73.0611 11.0379 70.2305 9.76725 67.25C7.43676 61.8379 6.23975 56.0058 6.25007 50.1133C6.25007 45.2344 7.04929 39.8438 8.62585 35.9375H37.5329L14.529 75.6898Z" fill="white"/>
</svg>
