<svg width="59" height="80" viewBox="0 0 59 80" fill="none" xmlns="http://www.w3.org/2000/svg">
<g filter="url(#filter0_d_790_245)">
<path d="M29.5419 46.9276C22.2674 46.9276 16.316 40.9762 16.316 33.7017V13.2259C16.316 5.95137 22.2674 0 29.5419 0H29.5583C36.8239 0 42.7678 5.94398 42.7678 13.2095V33.7017C42.7678 40.9762 36.8165 46.9276 29.5419 46.9276V46.9276Z" fill="#FEC926"/>
<path d="M1.25 33.4559C1.25 49.0565 13.9413 61.7479 29.542 61.7479C45.1427 61.7479 57.834 49.0565 57.834 33.4559C57.834 31.4347 56.1947 29.7954 54.1735 29.7954C52.1523 29.7954 50.5131 31.4347 50.5131 33.4559C50.5131 45.0182 41.1043 54.4269 29.542 54.4269C17.9796 54.4269 8.57094 45.0182 8.57094 33.4559C8.57094 31.4347 6.93167 29.7954 4.91047 29.7954C2.88926 29.7954 1.25 31.4347 1.25 33.4559Z" fill="#FEC926" stroke="#FEC926" stroke-width="1.5"/>
<path d="M29.2024 77.9053C26.3036 77.9053 23.9524 75.2725 23.9524 73.6098V59.9165C23.9524 58.2539 26.3036 56.9053 29.2024 56.9053C32.1011 56.9053 34.4524 58.2539 34.4524 59.9165V73.6098C34.4524 75.2725 32.1011 77.9053 29.2024 77.9053Z" fill="#FEC926"/>
</g>
<defs>
<filter id="filter0_d_790_245" x="0.5" y="0" width="58.084" height="79.9053" filterUnits="userSpaceOnUse" color-interpolation-filters="sRGB">
<feFlood flood-opacity="0" result="BackgroundImageFix"/>
<feColorMatrix in="SourceAlpha" type="matrix" values="0 0 0 0 0 0 0 0 0 0 0 0 0 0 0 0 0 0 127 0" result="hardAlpha"/>
<feOffset dy="2"/>
<feComposite in2="hardAlpha" operator="out"/>
<feColorMatrix type="matrix" values="0 0 0 0 0.0784314 0 0 0 0 0.72549 0 0 0 0 0.956863 0 0 0 1 0"/>
<feBlend mode="normal" in2="BackgroundImageFix" result="effect1_dropShadow_790_245"/>
<feBlend mode="normal" in="SourceGraphic" in2="effect1_dropShadow_790_245" result="shape"/>
</filter>
</defs>
</svg>
