<svg width="74" height="80" viewBox="0 0 74 80" fill="none" xmlns="http://www.w3.org/2000/svg">
<g filter="url(#filter0_d_221_41)">
<path d="M70.9745 47.274C69.7607 61.7397 55.7579 75 36.9873 75C18.2166 75 3 61.7397 3 47.274C3 37.6301 18.2166 31 36.9873 31C55.7579 31 71.7261 38.3172 70.9745 47.274Z" fill="white"/>
</g>
<ellipse cx="37" cy="45.5" rx="30" ry="12.5" fill="#BCEDFF" fill-opacity="0.5"/>
<path fill-rule="evenodd" clip-rule="evenodd" d="M54.2459 55.0984C62.0004 49.604 67.0617 40.5592 67.0617 30.3322C67.0617 13.5802 53.4815 0 36.7294 0C19.9774 0 6.39722 13.5802 6.39722 30.3322C6.39722 40.7745 11.674 49.9844 19.7064 55.4408L19.7434 55.326C25.3245 57.0246 39.884 59.4026 53.4728 55.326C53.7382 55.2463 53.9959 55.1705 54.2459 55.0984Z" fill="#FFC000" fill-opacity="0.85"/>
<g filter="url(#filter1_f_221_41)">
<circle cx="37" cy="30" r="25" fill="white"/>
</g>
<path d="M45.831 31.6873C45.5564 31.6873 45.0282 31.7518 45.0282 31.7518C46.8663 31.1074 48.1761 29.3246 48.1761 27.241C48.1761 24.6205 46.0634 22.4725 43.486 22.4725C42.3451 22.4725 41.3099 22.8807 40.4648 23.5895L40.4015 23.4606C40.9719 22.537 41.3099 21.4845 41.3099 20.3246C41.3099 17.0382 38.6902 14.3747 35.4367 14.3747C32.1832 14.3747 29.5634 17.0382 29.5634 20.3461C29.5634 21.7422 30.0282 23.0095 30.8099 24.0191C29.9437 23.0955 28.7395 22.494 27.3874 22.494C24.8099 22.494 22.6972 24.642 22.6972 27.2625C22.6972 29.3461 24.0282 31.1074 25.8451 31.7733C25.8451 31.7733 25.317 31.7088 25.0423 31.7088C22.4648 31.7088 20.3522 33.8568 20.3522 36.4773C20.3522 37.7446 20.8592 38.7971 21.6198 39.6778C25.8451 44.4463 35.7747 44.0167 37.5282 43.8449C39.2817 44.0167 45.0282 44.4678 49.2536 39.6778C50.0564 38.7971 50.5212 37.7231 50.5212 36.4773C50.5212 33.8138 48.4085 31.6873 45.831 31.6873Z" fill="#FFC000"/>
<path d="M30.831 44.7685H30.7253C27.7465 44.4678 23.6267 43.4368 20.8591 40.3007C20.5 39.8926 20.5211 39.2482 20.9225 38.8616C21.3239 38.4964 21.9577 38.5179 22.338 38.926C24.662 41.5466 28.2746 42.4272 30.8944 42.7065C31.4225 42.7709 31.8239 43.2435 31.8028 43.8234C31.7817 44.4034 31.338 44.7685 30.831 44.7685Z" fill="#2AAEE3"/>
<path d="M21.6197 40.6659C21.3451 40.6659 21.0915 40.5585 20.8803 40.3222C19.8451 39.2053 19.338 37.8735 19.338 36.4344C19.338 33.9427 20.8803 31.8377 23.0563 31.0215C22.1901 29.9905 21.6831 28.6587 21.6831 27.241C21.6831 24.4916 23.6267 22.0644 26.3098 21.5489C26.838 21.4415 27.3873 21.8282 27.4929 22.3652C27.5986 22.9021 27.2183 23.4606 26.6901 23.568C24.9366 23.9117 23.7113 25.4368 23.7113 27.241C23.6901 28.8305 24.7042 30.2697 26.1831 30.7637C26.6901 30.9356 26.9436 31.4511 26.8169 31.9666C26.6901 32.4821 26.2042 32.8258 25.7183 32.7399C25.5282 32.7184 25.1901 32.6754 25.0422 32.6754C22.9929 32.6754 21.3451 34.3508 21.3451 36.4344C21.3451 37.3795 21.6831 38.2172 22.3591 38.969C22.7183 39.3771 22.7183 40.0215 22.2958 40.4081C22.1267 40.58 21.8944 40.6659 21.6197 40.6659Z" fill="#2AAEE3"/>
<path d="M30.8098 25.0072C30.514 25.0072 30.1971 24.8783 30.0069 24.642C29.0351 23.4177 28.5281 21.9141 28.5281 20.3461C28.5281 16.4797 31.6126 13.3652 35.3943 13.3652C39.176 13.3652 42.2605 16.5012 42.2605 20.3461C42.2605 20.926 41.8168 21.3771 41.2464 21.3771C40.676 21.3771 40.2323 20.926 40.2323 20.3461C40.2323 17.6182 38.0562 15.4057 35.3731 15.4057C32.69 15.4057 30.514 17.6182 30.514 20.3461C30.514 21.463 30.8731 22.4941 31.5492 23.3747C31.8872 23.8258 31.8239 24.4702 31.3802 24.8139C31.2323 24.9427 31.0422 25.0072 30.8098 25.0072Z" fill="#2AAEE3"/>
<path d="M38.7535 44.9188C38.1409 44.9188 38.5634 44.8974 37.8873 44.8544C37.3169 44.8329 36.9155 44.3389 36.9578 43.7589C36.9789 43.179 37.4648 42.7709 38.0352 42.8138C40.0423 42.9427 44.8169 43.0931 48.4718 38.969C48.831 38.5609 49.4859 38.5179 49.8873 38.9045C50.2887 39.2697 50.331 39.9356 49.9507 40.3437C48.7042 41.7828 46.1268 44.9188 38.7535 44.9188Z" fill="#2AAEE3"/>
<path d="M49.2536 40.6659C49.0212 40.6659 48.7465 40.5585 48.5775 40.3866C48.1761 40.0215 48.1339 39.3556 48.5141 38.9475C49.1902 38.1957 49.5282 37.3795 49.5282 36.4129C49.5282 34.3294 47.8803 32.6539 45.831 32.6539C45.7043 32.6539 45.324 32.6754 45.155 32.7184C44.6479 32.7828 44.1409 32.4391 44.0564 31.9451C43.9296 31.4296 44.2254 30.9141 44.6902 30.7422C46.1691 30.2267 47.1832 28.7876 47.1832 27.1981C47.1832 25.1146 45.5353 23.4391 43.486 23.4391C42.4508 23.4391 41.5001 23.8473 40.8029 24.642C40.4437 25.0501 39.831 25.0931 39.4296 24.7064C39.0282 24.3628 38.9648 23.7184 39.3029 23.3103C39.9789 22.4296 40.3381 21.3556 40.3381 20.2816C40.3381 17.5537 38.162 15.3413 35.4789 15.3413C34.9085 15.3413 34.4648 14.8902 34.4648 14.3103C34.4648 13.7303 34.9085 13.2792 35.4789 13.2792C39.2606 13.2792 42.3451 16.4153 42.3451 20.2601C42.3451 20.7112 42.324 21.1193 42.2395 21.5489C42.6832 21.4415 43.0846 21.42 43.5071 21.42C46.655 21.42 49.2113 24.0191 49.2113 27.2196C49.2113 28.6587 48.7043 29.9475 47.8381 31C50.0141 31.8162 51.5564 33.9212 51.5564 36.4129C51.5564 37.8735 51.0282 39.1623 50.0141 40.3007C49.7817 40.5585 49.5071 40.6659 49.2536 40.6659Z" fill="#2AAEE3"/>
<path d="M35.0986 32.4391C34.8662 32.4391 34.655 32.3747 34.4648 32.2028L31.1902 29.4749C30.7465 29.1312 30.6831 28.4869 31.0634 28.0358C31.4014 27.5847 32.0353 27.5203 32.4789 27.9069L35.7536 30.6348C36.1972 30.9785 36.2606 31.6229 35.8803 32.074C35.6691 32.3102 35.3733 32.4391 35.0986 32.4391ZM35.9014 28.4654C35.6057 28.4654 35.2888 28.3365 35.0986 28.0573C34.7606 27.6062 34.8662 26.9618 35.2888 26.6181L37.4014 25.0071C37.8451 24.6635 38.4789 24.7709 38.8169 25.2005C39.155 25.6301 39.0493 26.2959 38.6268 26.6396L36.5141 28.2506C36.3029 28.4009 36.1127 28.4654 35.9014 28.4654ZM36.9789 36.8854C36.6409 36.8854 36.3029 36.7136 36.1127 36.4129C35.8169 35.9403 35.986 35.2959 36.4507 35.0167L39.9155 32.8258C40.3803 32.525 41.0141 32.6969 41.2888 33.1694C41.5845 33.642 41.4155 34.2864 40.9507 34.5656L37.5071 36.7565C37.3592 36.821 37.1479 36.8854 36.9789 36.8854Z" fill="#2AAEE3"/>
<path d="M33.8098 19.2721C33.5351 19.2721 33.2816 19.1647 33.0703 18.9284C32.7112 18.5203 32.7323 17.8759 33.1337 17.4893C34.0422 16.6731 35.183 16.222 36.3872 16.222C36.9577 16.222 37.4013 16.6731 37.4013 17.253C37.4013 17.833 36.9577 18.284 36.3872 18.284C35.69 18.284 35.014 18.5633 34.4647 19.0358C34.2746 19.1647 34.0422 19.2721 33.8098 19.2721ZM32.521 22.1719C32.2464 22.1719 31.9929 22.0645 31.8239 21.8712C31.6337 21.6778 31.5281 21.4201 31.5281 21.1623C31.5281 20.8831 31.6337 20.6253 31.8239 20.4535C31.845 20.432 31.9295 20.3461 31.9929 20.3246C32.0562 20.3031 32.0985 20.2602 32.1619 20.2172C32.2253 20.1957 32.2886 20.1957 32.352 20.1528C32.69 20.0883 33.0281 20.1743 33.2605 20.432C33.4506 20.6253 33.5562 20.8831 33.5562 21.1408C33.5562 21.4201 33.4506 21.6778 33.2605 21.8497C33.0281 22.0645 32.7957 22.1719 32.521 22.1719Z" fill="white"/>
<path d="M35.7958 48.8711C35.162 48.8711 34.6338 48.3556 34.6338 47.6897V23.6539C34.6338 23.0095 35.1408 22.4725 35.7958 22.4725C36.4507 22.4725 36.9577 22.988 36.9577 23.6539V47.6897C36.9577 48.3556 36.4296 48.8711 35.7958 48.8711Z" fill="#2AAEE3"/>
<defs>
<filter id="filter0_d_221_41" x="0" y="30" width="74" height="50" filterUnits="userSpaceOnUse" color-interpolation-filters="sRGB">
<feFlood flood-opacity="0" result="BackgroundImageFix"/>
<feColorMatrix in="SourceAlpha" type="matrix" values="0 0 0 0 0 0 0 0 0 0 0 0 0 0 0 0 0 0 127 0" result="hardAlpha"/>
<feOffset dy="2"/>
<feGaussianBlur stdDeviation="1.5"/>
<feColorMatrix type="matrix" values="0 0 0 0 0.495833 0 0 0 0 0.495833 0 0 0 0 0.495833 0 0 0 0.25 0"/>
<feBlend mode="normal" in2="BackgroundImageFix" result="effect1_dropShadow_221_41"/>
<feBlend mode="normal" in="SourceGraphic" in2="effect1_dropShadow_221_41" result="shape"/>
</filter>
<filter id="filter1_f_221_41" x="10" y="3" width="54" height="54" filterUnits="userSpaceOnUse" color-interpolation-filters="sRGB">
<feFlood flood-opacity="0" result="BackgroundImageFix"/>
<feBlend mode="normal" in="SourceGraphic" in2="BackgroundImageFix" result="shape"/>
<feGaussianBlur stdDeviation="1" result="effect1_foregroundBlur_221_41"/>
</filter>
</defs>
</svg>
