<svg width="79" height="79" viewBox="0 0 79 79" fill="none" xmlns="http://www.w3.org/2000/svg">
<g clip-path="url(#clip0_112_3)">
<path d="M53.9146 46.3438L46.488 53.7704L51.6544 58.9367L59.081 51.5101L53.9146 46.3438Z" fill="#40596B"/>
<path d="M75.3468 61.8757L60.0491 50.2312L50.2312 60.0491L61.8757 75.1185C65.3006 79.685 72.1503 80.1416 76.0318 76.0318C80.3699 72.1503 79.9133 65.5289 75.3468 61.8757Z" fill="#FFC000" fill-opacity="0.85"/>
<path d="M53.0157 52.992C65.1421 40.8656 65.1421 21.2047 53.0157 9.07824C40.8892 -3.04821 21.2284 -3.04822 9.1019 9.07824C-3.02455 21.2047 -3.02455 40.8656 9.1019 52.992C21.2284 65.1185 40.8892 65.1185 53.0157 52.992Z" fill="#14B9F4"/>
<path d="M31.0521 54.7977C44.1664 54.7977 54.7977 44.1664 54.7977 31.052C54.7977 17.9377 44.1664 7.30635 31.0521 7.30635C17.9377 7.30635 7.3064 17.9377 7.3064 31.052C7.3064 44.1664 17.9377 54.7977 31.0521 54.7977Z" fill="#F2F2F2"/>
<path d="M14.1559 32.6503C13.2426 32.6503 12.3293 31.9653 12.3293 30.8237C12.3293 20.5491 20.7773 12.1012 31.0519 12.1012C31.9652 12.1012 32.8785 12.7861 32.8785 13.9278C32.8785 14.841 32.1935 15.7543 31.0519 15.7543C22.6039 15.7543 15.7542 22.6041 15.7542 31.052C15.7542 31.9653 15.0692 32.6503 14.1559 32.6503Z" fill="white"/>
</g>
<defs>
<clipPath id="clip0_112_3">
<rect width="79" height="79" fill="white"/>
</clipPath>
</defs>
</svg>
